<?xml version="1.0" encoding="UTF-8" standalone="no"?>
<svg
   xmlns:dc="http://purl.org/dc/elements/1.1/"
   xmlns:cc="http://creativecommons.org/ns#"
   xmlns:rdf="http://www.w3.org/1999/02/22-rdf-syntax-ns#"
   xmlns:svg="http://www.w3.org/2000/svg"
   xmlns="http://www.w3.org/2000/svg"
   xmlns:sodipodi="http://sodipodi.sourceforge.net/DTD/sodipodi-0.dtd"
   xmlns:inkscape="http://www.inkscape.org/namespaces/inkscape"
   viewBox="0 0 1600 900"
   enable-background="new 0 0 145.996 40"
   id="svg2"
   version="1.1"
   inkscape:version="0.48.3.1 r9886"
   width="100%"
   height="100%"
   sodipodi:docname="spreedme.svg"
   inkscape:export-filename="/home/domain/longsleep/Desktop/spreedme.png"
   inkscape:export-xdpi="72"
   inkscape:export-ydpi="72">
  <metadata
     id="metadata30">
    <rdf:RDF>
      <cc:Work
         rdf:about="">
        <dc:format>image/svg+xml</dc:format>
        <dc:type
           rdf:resource="http://purl.org/dc/dcmitype/StillImage" />
        <dc:title></dc:title>
      </cc:Work>
    </rdf:RDF>
  </metadata>
  <defs
     id="defs28" />
  <sodipodi:namedview
     pagecolor="#ffffff"
     bordercolor="#666666"
     borderopacity="1"
     objecttolerance="10"
     gridtolerance="10"
     guidetolerance="10"
     inkscape:pageopacity="0"
     inkscape:pageshadow="2"
     inkscape:window-width="1294"
     inkscape:window-height="1176"
     id="namedview26"
     showgrid="false"
     fit-margin-top="50"
     fit-margin-left="0"
     fit-margin-right="0"
     fit-margin-bottom="0"
     units="pt"
     inkscape:zoom="0.19433329"
     inkscape:cx="1451.505"
     inkscape:cy="-183.34068"
     inkscape:window-x="244"
     inkscape:window-y="54"
     inkscape:window-maximized="0"
     inkscape:current-layer="svg2" />
  <g
     transform="matrix(3.9727087,0,0,3.9725101,519.71811,355.1647)"
     id="g4">
    <path
       d="m 11.23,17.661 -0.179,0.257 0.176,-0.26 C 10.362,17.072 8.946,16.485 6.945,15.894 5.361,15.443 4.296,15.049 3.797,14.754 3.093,14.303 2.787,13.781 2.781,13.074 2.783,11.562 4.066,10.511 6.076,10.495 h 0.78 c 1.732,0.006 2.82,0.518 3.438,1.538 0.206,0.356 0.537,0.612 0.933,0.609 0.23,-10e-4 0.452,-0.08 0.668,-0.209 0.361,-0.195 0.636,-0.522 0.632,-0.927 0,-0.246 -0.091,-0.479 -0.234,-0.711 C 11.232,9.003 9.362,8.104 6.857,8.112 h -0.78 c -1.623,0 -3.03,0.491 -4.04,1.365 -1.01,0.872 -1.605,2.132 -1.604,3.598 -0.006,1.492 0.685,2.726 1.965,3.546 0.764,0.52 2.05,1.04 3.887,1.566 1.804,0.514 3.03,1 3.612,1.418 0.799,0.57 1.193,1.322 1.2,2.376 -0.005,0.761 -0.375,1.399 -1.235,2.02 -0.832,0.617 -1.737,0.917 -2.677,0.917 H 6.405 C 4.663,24.922 2.97,23.956 2.26,22.613 2.077,22.228 1.737,21.932 1.313,21.936 c -0.218,0.001 -0.432,0.073 -0.644,0.189 -0.395,0.187 -0.673,0.533 -0.667,0.938 0.001,0.215 0.069,0.423 0.177,0.626 1.164,2.189 3.55,3.579 6.226,3.579 h 0.781 c 0,0 0.002,0 0.003,0 1.532,0 2.971,-0.516 4.22,-1.497 1.353,-1.042 2.076,-2.32 2.071,-3.791 0.006,-1.809 -0.773,-3.3 -2.248,-4.32"
       id="path6"
       inkscape:connector-curvature="0" />
    <path
       d="M 28.956,10.187 C 27.573,8.8 25.88,8.109 23.926,8.112 h -0.715 c -2.158,-0.003 -4.057,0.85 -5.473,2.504 -1.656,1.684 -1.727,4.23 -1.734,4.834 0,0.083 0.002,0.131 0.002,0.134 v 18.882 c -0.001,0.34 0.087,0.653 0.304,0.876 0.216,0.223 0.523,0.314 0.848,0.314 0.003,0 0.005,0 0.007,0 0.34,10e-4 0.656,-0.087 0.879,-0.311 0.224,-0.224 0.313,-0.539 0.312,-0.879 v -9.06 c 1.327,1.268 2.967,1.903 4.855,1.898 h 0.715 c 1.958,0.004 3.65,-0.687 5.03,-2.075 1.386,-1.381 2.079,-3.041 2.075,-4.968 V 15.19 c 0.002,-1.926 -0.687,-3.618 -2.075,-5 m -5.748,0.244 h 0.715 c 1.325,0.002 2.428,0.451 3.351,1.399 0.958,0.964 1.404,2.034 1.408,3.358 v 5.071 c -0.004,1.324 -0.449,2.394 -1.405,3.354 -0.922,0.918 -2.029,1.368 -3.354,1.371 H 23.208 C 21.884,24.984 20.812,24.537 19.85,23.612 18.9,22.655 18.454,21.586 18.451,20.261 V 15.19 c 0.003,-1.325 0.449,-2.394 1.404,-3.354 0.958,-0.954 2.028,-1.399 3.353,-1.402"
       id="path8"
       inkscape:connector-curvature="0" />
    <path
       d="M 43.01,8.352 C 42.792,8.121 42.479,8.028 42.152,8.03 h -0.779 c -2.092,-0.004 -3.882,0.821 -5.293,2.398 -0.157,0.147 -1.714,1.649 -1.847,4.423 v 0.009 10.907 c -0.002,0.329 0.089,0.635 0.307,0.853 0.216,0.215 0.519,0.307 0.845,0.307 0.002,0 0.004,0 0.007,0 0.354,0 0.671,-0.084 0.903,-0.301 0.23,-0.218 0.323,-0.53 0.321,-0.858 v -10.63 c 0.002,-1.291 0.449,-2.365 1.375,-3.326 0.954,-0.949 2.058,-1.397 3.383,-1.399 h 0.779 c 0.329,0.002 0.635,-0.089 0.853,-0.307 0.217,-0.218 0.308,-0.523 0.307,-0.852 0,-0.354 -0.085,-0.671 -0.302,-0.901"
       id="path10"
       inkscape:connector-curvature="0" />
    <path
       d="m 95.29,24.392 c -0.242,-0.24 -0.581,-0.336 -0.955,-0.335 -0.373,-10e-4 -0.711,0.095 -0.953,0.335 -0.239,0.241 -0.337,0.581 -0.335,0.954 v 0.487 c -0.002,0.374 0.096,0.712 0.335,0.953 0.242,0.24 0.58,0.336 0.953,0.335 0.004,0 0.006,0 0.009,0 0.369,0 0.705,-0.097 0.946,-0.335 0.238,-0.241 0.336,-0.58 0.334,-0.953 v -0.487 c 0.002,-0.373 -0.096,-0.713 -0.334,-0.954"
       id="path12"
       inkscape:connector-curvature="0" />
    <path
       d="m 145.69,18.09 c 0.219,-0.217 0.309,-0.523 0.308,-0.851 v -2.02 c 0.003,-1.926 -0.688,-3.617 -2.074,-5 -1.382,-1.385 -3.071,-2.11 -5,-2.108 h -0.779 c -1.931,-0.002 -3.649,0.721 -5.03,2.108 -1.387,1.38 -2.11,3.069 -2.108,5 v 5.071 c -0.002,1.962 0.72,3.683 2.108,5.065 1.383,1.388 3.098,2.076 5.02,2.076 0.004,0 0.008,0 0.012,0 h 0.779 c 2.999,-0.001 5.681,-1.939 6.732,-4.789 0.052,-0.148 0.053,-0.277 0.052,-0.369 0.001,-0.354 -0.086,-0.675 -0.308,-0.906 -0.225,-0.23 -0.544,-0.32 -0.884,-0.318 -0.518,-0.017 -0.991,0.294 -1.143,0.799 -0.646,1.954 -2.401,3.196 -4.45,3.199 h -0.779 c -1.359,-0.003 -2.465,-0.453 -3.388,-1.371 -0.919,-0.923 -1.367,-2.027 -1.369,-3.387 v -1.896 h 11.453 c 0.329,10e-4 0.636,-0.089 0.851,-0.307 m -7.547,-7.592 h 0.779 c 1.325,0.003 2.396,0.45 3.321,1.371 0.921,0.923 1.369,2.029 1.371,3.354 v 0.825 h -10.229 v -0.825 c 0.002,-1.326 0.45,-2.431 1.369,-3.354 0.924,-0.919 2.029,-1.368 3.389,-1.371"
       id="path14"
       inkscape:connector-curvature="0" />
    <path
       d="M 90.51,18.912 V 1.191 C 90.511,0.85 90.422,0.535 90.199,0.311 89.975,0.087 89.659,0 89.319,0 88.99,-0.001 88.682,0.09 88.464,0.314 88.245,0.537 88.159,0.849 88.16,1.191 v 8.65 C 86.848,8.55 85.183,7.895 83.272,7.899 h -0.716 c -1.988,-0.003 -3.683,0.688 -5.065,2.075 -1.355,1.386 -2.045,3.075 -2.042,5.03 v 5.104 c -0.003,1.923 0.651,3.616 2.042,5 1.382,1.387 3.071,2.042 5.05,2.042 0.006,0 0.012,0 0.018,0 h 0.716 c 2.183,0.005 4.046,-0.819 5.431,-2.473 1.646,-1.666 1.822,-4.09 1.828,-5.19 -0.001,-0.316 -0.017,-0.524 -0.022,-0.579 m -7.238,5.925 h -0.716 c -1.33,-0.004 -2.432,-0.422 -3.385,-1.371 -0.951,-0.957 -1.368,-2.024 -1.372,-3.354 v -5.104 c 0.004,-1.325 0.45,-2.396 1.372,-3.321 0.956,-0.953 2.061,-1.4 3.385,-1.404 h 0.716 c 1.358,0.003 2.461,0.452 3.382,1.4 0.926,0.93 1.373,2 1.375,3.325 v 5.104 c -0.002,1.325 -0.449,2.398 -1.375,3.357 -0.919,0.915 -2.023,1.364 -3.382,1.368"
       id="path16"
       inkscape:connector-curvature="0" />
    <g
       id="g18"
       style="fill:#00bbd7">
      <path
         d="M 70.07,10.224 C 68.686,8.837 66.966,8.114 65.04,8.116 h -0.78 c -1.931,-0.002 -3.618,0.722 -4.999,2.108 -0.335,0.333 -0.628,0.685 -0.882,1.053 -0.252,-0.368 -0.546,-0.72 -0.88,-1.053 -1.381,-1.386 -3.07,-2.11 -5,-2.108 h -0.78 c -1.93,-0.002 -3.65,0.72 -5.03,2.108 -1.385,1.38 -2.11,3.069 -2.107,5 v 5.071 c -0.003,1.962 0.721,3.683 2.107,5.065 1.382,1.387 3.099,2.075 5.02,2.075 h 0.793 c 2.382,-10e-4 4.56,-1.226 5.883,-3.157 1.325,1.933 3.502,3.156 5.88,3.157 h 0.78 c 1.927,0.003 3.648,-0.686 5.03,-2.075 1.387,-1.383 2.11,-3.104 2.107,-5.065 v -5.071 c 0.004,-1.932 -0.723,-3.621 -2.107,-5 m -9.136,1.646 c 0.925,-0.921 2,-1.367 3.322,-1.371 h 0.78 c 1.359,0.004 2.465,0.453 3.388,1.371 0.919,0.923 1.367,2.028 1.37,3.354 v 0.823 H 59.574 v -0.824 c 0,-0.024 -0.002,-0.049 -0.002,-0.074 0.02,-1.291 0.468,-2.374 1.367,-3.279 M 46.96,15.225 c 0.003,-1.326 0.453,-2.432 1.371,-3.355 0.923,-0.918 2.028,-1.367 3.387,-1.371 h 0.78 c 1.326,0.004 2.396,0.45 3.322,1.371 0.9,0.904 1.347,1.986 1.368,3.277 0,0.026 -0.002,0.051 -0.002,0.077 v 0.823 H 46.96 v -0.822 m 11.129,5.83 c -0.517,-0.018 -0.991,0.294 -1.142,0.8 -0.644,1.953 -2.399,3.196 -4.45,3.199 h -0.78 C 50.358,25.05 49.254,24.601 48.33,23.683 47.413,22.76 46.963,21.655 46.959,20.296 v -1.897 h 11.455 c 0,0 10e-4,0 0.002,0 h 11.381 l 0.001,1.897 c -0.004,1.359 -0.453,2.464 -1.371,3.387 -0.923,0.917 -2.028,1.367 -3.388,1.37 h -0.78 C 62.21,25.05 60.454,23.807 59.812,21.856 59.66,21.349 59.187,21.037 58.669,21.055 h -0.58"
         id="path20"
         inkscape:connector-curvature="0" />
      <path
         d="m 66.9,31.712 -8.114,8.114 C 58.682,39.93 58.525,40 58.386,40 c -0.14,0 -0.296,-0.07 -0.4,-0.174 l -8.114,-8.114 c -0.105,-0.105 -0.175,-0.261 -0.175,-0.4 0,-0.141 0.07,-0.296 0.175,-0.401 l 0.87,-0.871 c 0.104,-0.104 0.244,-0.174 0.401,-0.174 0.139,0 0.296,0.07 0.4,0.174 l 6.843,6.842 6.841,-6.842 c 0.104,-0.104 0.261,-0.174 0.4,-0.174 0.142,0 0.296,0.07 0.402,0.174 l 0.87,0.871 c 0.104,0.104 0.174,0.26 0.174,0.401 0.001,0.139 -0.068,0.295 -0.173,0.4"
         id="path22"
         inkscape:connector-curvature="0" />
    </g>
    <path
       d="m 127.72,13.292 -0.003,-0.009 -0.004,-0.01 c -0.274,-0.852 -0.969,-1.944 -0.974,-1.957 l -0.004,-0.007 -0.006,-0.007 C 125.29,9.246 123.275,8.204 120.785,8.211 h -0.781 c -2.128,-0.002 -3.984,0.823 -5.432,2.41 -0.271,0.271 -0.506,0.562 -0.706,0.862 -0.062,-0.105 -0.102,-0.167 -0.104,-0.168 l -0.005,-0.007 -0.004,-0.007 C 112.314,9.245 110.299,8.203 107.808,8.21 h -0.78 c -2.129,-0.003 -3.984,0.823 -5.432,2.411 -1.785,1.794 -1.868,4.222 -1.873,4.753 0,0.05 0.001,0.084 0.001,0.1 v 10.604 c -0.001,0.341 0.088,0.657 0.312,0.88 0.224,0.223 0.54,0.312 0.882,0.312 0.353,0 0.673,-0.085 0.904,-0.308 0.23,-0.225 0.319,-0.542 0.319,-0.884 V 15.481 c 10e-4,-1.319 0.482,-2.462 1.436,-3.419 0.957,-0.954 2.097,-1.434 3.451,-1.437 h 0.78 c 1.318,0.002 2.462,0.483 3.419,1.437 0.987,0.96 1.467,2.1 1.47,3.419 v 10.598 c -0.019,0.507 0.238,0.979 0.708,1.121 0.148,0.051 0.312,0.073 0.488,0.073 0.353,0 0.674,-0.085 0.904,-0.308 0.231,-0.225 0.321,-0.543 0.317,-0.883 V 15.483 c 0.004,-1.319 0.483,-2.462 1.438,-3.419 0.956,-0.953 2.096,-1.433 3.45,-1.436 h 0.781 c 1.317,0.002 2.462,0.483 3.418,1.436 0.987,0.961 1.467,2.1 1.47,3.419 v 10.599 c -0.002,0.34 0.088,0.655 0.312,0.88 0.224,0.224 0.539,0.312 0.88,0.311 0.001,0 0.003,0 0.007,0 0.351,0 0.668,-0.086 0.897,-0.308 0.23,-0.225 0.321,-0.543 0.318,-0.883 V 15.483 c -0.001,-0.796 -0.364,-2.177 -0.365,-2.191"
       id="path24"
       inkscape:connector-curvature="0" />
  </g>
</svg>
